PathFileType	4	(X/Y/Z)	D:\telocate\uwb05-Unnamed.trc
DataRate	CameraRate	NumFrames	NumMarkers	Units	OrigDataRate	OrigDataStartFrame	OrigNumFrames
100.00	100.00	      122	0	mm	100.00	6177	      8235
Frame#	Time	
		

6177	61.760				3657.78540	-1251.08923	1132.65918	
6178	61.770				3664.01978	-1239.40808	1134.55298	
6179	61.780				3667.84717	-1229.20459	1134.06665	
6180	61.790				3670.84644	-1219.35828	1132.76819	
6181	61.800				3674.67236	-1209.14966	1131.63232	
6182	61.810				3680.65088	-1196.59387	1132.88220	
6183	61.820				3683.13281	-1186.88684	1131.43079	
6184	61.830				3689.34546	-1176.22375	1132.83350	
6185	61.840				3693.18555	-1166.99646	1132.53088	
6186	61.850				3697.02710	-1157.00244	1131.71948	
6187	61.860				3699.78833	-1147.05542	1130.95947	
6188	61.870				3703.00586	-1137.57300	1131.07251	
6189	61.880				3709.03638	-1127.02930	1132.25354	
6190	61.890				3711.12866	-1118.36206	1131.98059	
6191	61.900				3714.66626	-1109.36902	1131.79395	
6192	61.910				3717.45166	-1099.87952	1132.06982	
6193	61.920				3720.01660	-1090.97510	1131.00317	
6194	61.930				3724.41992	-1080.53711	1131.33777	
6195	61.940				3729.44019	-1069.30981	1132.70374	
6196	61.950				3735.45508	-1058.01306	1131.59082	
6197	61.960				3739.00171	-1046.05725	1132.31348	
6198	61.970				3741.06494	-1035.01465	1130.90076	
6199	61.980				3744.74780	-1023.89520	1130.33008	
6200	61.990				3747.66650	-1013.97107	1128.45374	
6201	62.000				3754.23950	-1000.55023	1128.92725	
6202	62.010				3757.86011	-989.14447	1127.25549	
6203	62.020				3765.54248	-976.33374	1126.99280	
6204	62.030				3767.35278	-963.98682	1125.42358	
6205	62.040				3769.27954	-953.75067	1123.47852	
6206	62.050				3772.96582	-941.68018	1122.03101	
6207	62.060				3779.53052	-927.62024	1121.93774	
6208	62.070				3784.09863	-914.52826	1120.76013	
6209	62.080				3792.43213	-901.14423	1119.83740	
6210	62.090				3794.26587	-888.43951	1118.53625	
6211	62.100				3795.96533	-877.45807	1115.94604	
6212	62.110				3800.30298	-864.10150	1114.03198	
6213	62.120				3806.83838	-849.81232	1113.53442	
6214	62.130				3811.08545	-837.23975	1110.89124	
6215	62.140				3819.42090	-823.05176	1110.52673	
6216	62.150				3821.06689	-810.59656	1109.41846	
6217	62.160				3825.53540	-798.13690	1107.58362	
6218	62.170				3833.87793	-784.24060	1105.93628	
6219	62.180				3838.25342	-771.25507	1104.55688	
6220	62.190				3842.45532	-758.19952	1103.17566	
6221	62.200				3846.99927	-746.05951	1102.62512	
6222	62.210				3847.12500	-735.02295	1101.99829	
6223	62.220				3851.05737	-723.65710	1101.03772	
6224	62.230				3852.55103	-713.34241	1100.59521	
6225	62.240				3858.77344	-699.78851	1101.10962	
6226	62.250				3861.99194	-688.44299	1101.57080	
6227	62.260				3870.04199	-676.80664	1101.78259	
6228	62.270				3870.17383	-665.49713	1102.62598	
6229	62.280				3871.31323	-655.35364	1103.11133	
6230	62.290				3876.82520	-643.14923	1103.76880	
6231	62.300				3879.72876	-631.50861	1104.04834	
6232	62.310				3883.45215	-620.19214	1104.07959	
6233	62.320				3886.00903	-608.64484	1104.76257	
6234	62.330				3888.46802	-597.63977	1105.37646	
6235	62.340				3891.32446	-585.76782	1105.36926	
6236	62.350				3894.13062	-575.03271	1106.18152	
6237	62.360				3896.51123	-563.72345	1106.43640	
6238	62.370				3898.81152	-552.41040	1106.92322	
6239	62.380				3900.67114	-541.61133	1107.32422	
6240	62.390				3903.03442	-529.54138	1109.06006	
6241	62.400				3905.09448	-518.41290	1109.54211	
6242	62.410				3906.79688	-507.36826	1110.43433	
6243	62.420				3908.48047	-495.29449	1110.95752	
6244	62.430				3909.50195	-484.64676	1110.82495	
6245	62.440				3910.78882	-474.13724	1111.43738	
6246	62.450				3912.89624	-462.02090	1112.51489	
6247	62.460				3914.31396	-449.92410	1112.61523	
6248	62.470				3915.30933	-437.31113	1111.82275	
6249	62.480				3916.61377	-425.74762	1112.48291	
6250	62.490				3917.59912	-414.03885	1112.24500	
6251	62.500				3918.50537	-401.78711	1111.62195	
6252	62.510				3920.15161	-389.40329	1111.33350	
6253	62.520				3921.27515	-377.17599	1111.20239	
6254	62.530				3921.30420	-365.18527	1109.58655	
6255	62.540				3921.96143	-352.80933	1109.03809	
6256	62.550				3922.57861	-339.68524	1108.43066	
6257	62.560				3923.71802	-326.65286	1107.76404	
6258	62.570				3924.35034	-314.55984	1107.53564	
6259	62.580				3924.37378	-302.67166	1106.54309	
6260	62.590				3924.45093	-290.81201	1105.96619	
6261	62.600				3924.94800	-277.96194	1105.49292	
6262	62.610				3925.51782	-264.90088	1104.33057	
6263	62.620				3924.91748	-252.36967	1103.52051	
6264	62.630				3924.63330	-240.12782	1102.26538	
6265	62.640				3924.46143	-228.29453	1101.88098	
6266	62.650				3924.73462	-216.10143	1101.09949	
6267	62.660				3924.36011	-204.69745	1100.33252	
6268	62.670				3924.67334	-192.29753	1100.14832	
6269	62.680				3923.70215	-181.10135	1099.56543	
6270	62.690				3923.66528	-168.85811	1099.40637	
6271	62.700				3922.71191	-157.70915	1099.43408	
6272	62.710				3922.01196	-146.45584	1098.80115	
6273	62.720				3921.48193	-136.03964	1099.47778	
6274	62.730				3920.78174	-124.72775	1100.26404	
6275	62.740				3919.91455	-113.87643	1100.77979	
6276	62.750				3919.47510	-103.92895	1100.78430	
6277	62.760				3918.21509	-92.92284	1101.29785	
6278	62.770				3917.35498	-82.13152	1103.02466	
6279	62.780				3916.32690	-71.97032	1104.30139	
6280	62.790				3915.58105	-61.73674	1105.16003	
6281	62.800				3913.96216	-52.16845	1105.41467	
6282	62.810				3913.44702	-41.55301	1107.01794	
6283	62.820				3912.18579	-30.61254	1108.24255	
6284	62.830				3911.13989	-19.29060	1109.38684	
6285	62.840				3910.08911	-9.35879	1109.94958	
6286	62.850				3908.69678	2.14557	1109.73584	
6287	62.860				3907.35181	12.47450	1110.61816	
6288	62.870				3907.19360	24.42877	1111.57886	
6289	62.880				3906.22925	35.04642	1111.06494	
6290	62.890				3905.63477	46.29103	1111.79663	
6291	62.900				3904.99707	57.28584	1111.86609	
6292	62.910				3904.56787	68.60656	1111.81482	
6293	62.920				3902.86108	79.85732	1112.60071	
6294	62.930				3902.96045	90.91145	1113.30078	
6295	62.940				3901.77930	101.57652	1114.44104	
6296	62.950				3901.65454	112.55411	1115.10364	
6297	62.960				3900.34131	122.57842	1115.85071	
6298	62.970				3899.74780	133.15726	1116.75024	
